<?xml version="1.0"?>
<svg xmlns="http://www.w3.org/2000/svg" xmlns:xlink="http://www.w3.org/1999/xlink" xmlns:svgjs="http://svgjs.com/svgjs" version="1.1" width="512" height="512" x="0" y="0" viewBox="0 0 512 512" style="enable-background:new 0 0 512 512" xml:space="preserve" class=""><g><g xmlns="http://www.w3.org/2000/svg"><path d="m191.733 230.681h25.167v81.4c0 8.284 6.716 15 15 15h64.267c8.284 0 15-6.716 15-15v-160.667c0-8.284-6.716-15-15-15h-56.233c-4.721 0-9.167 2.223-12 6l-48.2 64.267c-7.412 9.75-.242 24.08 11.999 24zm55.7-64.267h33.733v130.667h-34.266v-81.4c0-8.284-6.716-15-15-15h-10.167z" fill="#ffffff" data-original="#000000" style="" class=""/><path d="m504.498 282.464-32.585-18.812c-2.963-1.711-6.022-3.1-9.134-4.209 23.873-6.066 41.587-27.737 41.587-53.471v-37.623c0-8.284-6.716-15-15-15h-37.62c-3.419 0-6.761.329-10.01.927 17.678-17.182 22.185-44.745 9.271-67.109l-18.805-32.58c-4.142-7.173-13.313-9.631-20.488-5.493l-32.589 18.814c-26.339 15.204-35.402 49.009-20.199 75.354.001.002.005.008.003.006-.003-.006 18.811 32.578 18.812 32.579 12.29 21.225 18.809 45.484 18.838 70.129v.163c0 .014.002.028.002.042-7.791 186.489-273.44 186.345-281.162 0 0-.014.002-.028.002-.042v-.163c.029-24.645 6.548-48.904 18.838-70.129 0-.001 18.815-32.585 18.812-32.579-.001.002.002-.004.003-.006 15.203-26.346 6.14-60.15-20.199-75.354l-32.589-18.814c-7.175-4.138-16.347-1.68-20.488 5.493l-18.805 32.58c-12.914 22.364-8.407 49.927 9.271 67.109-3.249-.598-6.591-.927-10.01-.927h-37.62c-8.284 0-15 6.716-15 15v37.623c0 25.734 17.713 47.405 41.587 53.471-3.112 1.109-6.171 2.498-9.134 4.209l-32.585 18.812c-7.174 4.143-9.632 13.315-5.491 20.489l18.813 32.581c12.907 22.366 39.026 32.245 62.748 25.528-2.142 2.514-4.097 5.243-5.807 8.203l-18.805 32.584c-4.141 7.174-1.683 16.347 5.491 20.488l32.583 18.811c26.428 15.264 60.124 6.191 75.36-20.193 0 0 6.334-10.97 11.652-20.18 12.267 5.731 25.322 10.044 38.957 12.727l-25.809 25.809c-5.858 5.857-5.858 15.355 0 21.213 5.857 5.857 15.355 5.857 21.213 0l37.593-37.594 37.594 37.594c5.857 5.857 15.353 5.86 21.213 0 5.858-5.857 5.858-15.355 0-21.213l-25.809-25.809c13.635-2.683 26.689-6.997 38.957-12.727 5.318 9.209 11.652 20.18 11.652 20.18 15.236 26.384 48.932 35.458 75.36 20.193l32.583-18.811c7.174-4.142 9.632-13.314 5.491-20.488l-18.806-32.584c-1.709-2.96-3.665-5.689-5.807-8.203 23.721 6.716 49.841-3.162 62.748-25.528l18.813-32.581c4.141-7.174 1.683-16.347-5.491-20.489zm-417.526-180.301 11.307-19.591 19.592 11.313c12.017 6.937 16.152 22.354 9.219 34.374l-11.316 19.596-19.593-11.312c-12.043-6.95-16.171-22.323-9.209-34.38zm-49.34 103.807v-22.623h22.62c13.877 0 25.167 11.289 25.167 25.166v22.624h-22.62c-13.878 0-25.167-11.29-25.167-25.167zm43.551 123.777c-12.041 6.952-27.421 2.845-34.38-9.213l-11.312-19.59 19.594-11.313c12.038-6.95 27.416-2.839 34.376 9.214 0 .001 0 .001.001.002l11.313 19.589zm65.226 76.208c-6.952 12.038-22.324 16.172-34.377 9.213l-19.595-11.312 11.307-19.592c6.939-12.017 22.362-16.149 34.384-9.213l19.592 11.312zm305.339-222.608h22.62v22.623c0 13.877-11.29 25.167-25.167 25.167h-22.62v-22.624c.001-13.877 11.29-25.166 25.167-25.166zm-55.522-35.492-11.316-19.595c-6.933-12.02-2.797-27.438 9.223-34.376l19.588-11.312 11.309 19.594c6.953 12.041 2.845 27.42-9.211 34.377zm3.741 267.314c-12.04 6.95-27.418 2.837-34.375-9.211l-11.312-19.595 19.592-11.312c12.021-6.937 27.444-2.805 34.382 9.21l11.309 19.595zm65.227-94.63c-6.946 12.038-22.322 16.168-34.376 9.208l-19.593-11.312 11.313-19.589c0-.001.001-.001.001-.002 6.954-12.041 22.325-16.172 34.378-9.212l19.592 11.312z" fill="#ffffff" data-original="#000000" style="" class=""/></g></g></svg>
